<svg viewBox="0 0 80 80" fill="none" xmlns="http://www.w3.org/2000/svg">
  <!-- Soft glow behind bean -->
  <circle cx="40" cy="40" r="34" fill="#F7F3ED" opacity="0.08"/>

  <!-- Shadow -->
  <ellipse cx="40" cy="72" rx="20" ry="3" fill="#2C1A0E" opacity="0.1"/>

  <!-- Bean body with rich gradient -->
  <defs>
    <radialGradient id="bg" cx="38%" cy="32%" r="65%">
      <stop offset="0%" stop-color="#6B3A1F"/>
      <stop offset="40%" stop-color="#4A2512"/>
      <stop offset="100%" stop-color="#1A0D05"/>
    </radialGradient>
  </defs>
  <ellipse cx="40" cy="40" rx="22" ry="28" fill="url(#bg)"/>

  <!-- Rim highlight (top edge catch light) -->
  <ellipse cx="36" cy="16" rx="12" ry="4" fill="#7A4A2A" opacity="0.4" transform="rotate(-5,36,16)"/>

  <!-- Side highlight (left) -->
  <ellipse cx="24" cy="36" rx="4" ry="14" fill="#5C3018" opacity="0.35" transform="rotate(8,24,36)"/>

  <!-- Bean crease — the iconic line -->
  <path d="M36 14 Q42 28 40 40 Q38 52 40 66" stroke="#8B5A30" stroke-width="2.5" fill="none" stroke-linecap="round"/>
  <!-- Crease depth shadow -->
  <path d="M37 15 Q43 29 41 41 Q39 53 41 65" stroke="#1A0D05" stroke-width="1.2" fill="none" stroke-linecap="round" opacity="0.4"/>

  <!-- EYES — big, friendly, expressive -->
  <!-- Left eye white -->
  <ellipse cx="32" cy="34" rx="6" ry="6.5" fill="white"/>
  <!-- Right eye white -->
  <ellipse cx="50" cy="34" rx="6" ry="6.5" fill="white"/>

  <!-- Eye outlines -->
  <ellipse cx="32" cy="34" rx="6" ry="6.5" fill="none" stroke="#1A0D05" stroke-width="0.8" opacity="0.3"/>
  <ellipse cx="50" cy="34" rx="6" ry="6.5" fill="none" stroke="#1A0D05" stroke-width="0.8" opacity="0.3"/>

  <!-- Irises — warm brown -->
  <circle cx="33" cy="35" r="3.5" fill="#5C3018"/>
  <circle cx="51" cy="35" r="3.5" fill="#5C3018"/>

  <!-- Pupils -->
  <circle cx="33.5" cy="35.5" r="2" fill="#1A0D05"/>
  <circle cx="51.5" cy="35.5" r="2" fill="#1A0D05"/>

  <!-- Eye highlights — big gleam -->
  <circle cx="35" cy="33" r="1.5" fill="white"/>
  <circle cx="53" cy="33" r="1.5" fill="white"/>
  <!-- Secondary gleam -->
  <circle cx="31.5" cy="36.5" r="0.8" fill="white" opacity="0.6"/>
  <circle cx="49.5" cy="36.5" r="0.8" fill="white" opacity="0.6"/>

  <!-- Eyebrows — friendly, slightly raised -->
  <path d="M26 27 Q32 23 38 26" stroke="#3A1E10" stroke-width="2" fill="none" stroke-linecap="round"/>
  <path d="M44 26 Q50 23 56 27" stroke="#3A1E10" stroke-width="2" fill="none" stroke-linecap="round"/>

  <!-- Friendly smile -->
  <path d="M34 46 Q41 52 48 46" stroke="#3A1E10" stroke-width="1.8" fill="none" stroke-linecap="round"/>
  <!-- Smile cheeks -->
  <circle cx="30" cy="44" r="3" fill="#C0785A" opacity="0.2"/>
  <circle cx="52" cy="44" r="3" fill="#C0785A" opacity="0.2"/>

  <!-- Little steam wisps -->
  <path d="M32 8 Q30 4 32 0" stroke="#B5763A" stroke-width="1" stroke-linecap="round" opacity="0.25"/>
  <path d="M40 6 Q38 2 40 -2" stroke="#B5763A" stroke-width="1.2" stroke-linecap="round" opacity="0.2"/>
  <path d="M48 8 Q46 4 48 0" stroke="#B5763A" stroke-width="1" stroke-linecap="round" opacity="0.15"/>
</svg>
